<svg xmlns="http://www.w3.org/2000/svg" width="24" height="27" viewBox="0 0 24 27">
    <path fill="#75899B" fill-rule="nonzero" d="M15.499 26C19.642 26 23 22.415 23 18.5c0 0 0 2.313 0 0v-5.998a1.5 1.5 0 0 0-3 0V13h-1v-2.494a1.5 1.5 0 1 0-3 0V12h-1V9.506a1.5 1.5 0 1 0-3 0V13h-1V2.505a1.499 1.499 0 1 0-3 0V13.8c-2.058-2.2-4.768-4.62-5.879-3.504-1.087 1.093 1.714 4.105 5.626 10.687C9.51 23.95 11.74 26 15.5 26zM24 18.5a8.5 8.5 0 0 1-8.5 8.5c-3.113 0-6.398-1.453-8.66-5.572-3.263-5.945-7.436-9.845-5.449-11.832C2.813 8.174 5.045 9.538 7 11.366V2.509a2.5 2.5 0 1 1 5 0v4.99A2.493 2.493 0 0 1 13.5 7c1.083 0 1.995.677 2.346 1.628.44-.39 1.02-.628 1.654-.628 1.39 0 2.5 1.118 2.5 2.498v.013a2.495 2.495 0 0 1 1.5-.497c1.39 0 2.5 1.12 2.5 2.5V18.5z"/>
</svg>
